<svg xmlns="http://www.w3.org/2000/svg" viewBox="0 0 64 64" fill="none"><defs><linearGradient id="g" x1="0" y1="0" x2="1" y2="1"><stop stop-color="#5e7ce2"/><stop offset="1" stop-color="#1c2742"/></linearGradient></defs><rect x="4" y="4" width="56" height="56" rx="14" fill="#0b0e14" stroke="url(#g)" stroke-width="3"/><path fill="#dfe6f5" d="M32 16c-8.837 0-16 7.163-16 16s7.163 16 16 16c3.53 0 6.785-1.144 9.43-3.08l-4.16-4.16A9 9 0 1 1 32 23a9 9 0 0 1 5.273 1.746l4.17-4.17C38.977 18.095 35.666 16 32 16Z"/><path fill="#dfe6f5" d="M41 28h4v4h-4v-4Zm-6 0h4v4h-4v-4Zm6 6h4v4h-4v-4Zm-6 0h4v4h-4v-4Z"/></svg>