<svg xmlns="http://www.w3.org/2000/svg" viewBox="0 0 64 64" fill="none"><rect x="6" y="6" width="52" height="52" rx="12" fill="#0b0e14" stroke="#dfe6f5" stroke-width="3"/><path fill="#dfe6f5" d="M32 12c-11 0-20 9.2-20 20.5 0 9.1 5.7 16.8 13.7 19.6 1 .2 1.4-.5 1.4-1.1v-4c-5.6 1.3-6.8-2.4-6.8-2.4-.9-2.5-2.3-3.1-2.3-3.1-1.9-1.3.1-1.2.1-1.2 2.1.2 3.2 2.2 3.2 2.2 1.9 3.3 5 2.3 6.2 1.8.2-1.4.7-2.3 1.3-2.8-4.5-.5-9.2-2.3-9.2-10 0-2.2.8-4 2.1-5.4-.2-.5-.9-2.6.2-5.3 0 0 1.7-.6 5.6 2.1a18.6 18.6 0 0 1 10.2 0c3.9-2.7 5.6-2.1 5.6-2.1 1.1 2.7.4 4.8.2 5.3 1.3 1.4 2.1 3.2 2.1 5.4 0 7.6-4.7 9.4-9.2 9.9.7.6 1.4 1.8 1.4 3.7v5.5c0 .6.4 1.3 1.5 1.1 8-2.8 13.7-10.5 13.7-19.6C52 21.2 43 12 32 12Z"/></svg>