<svg xmlns="http://www.w3.org/2000/svg" viewBox="0 0 64 64" fill="none"><rect x="4" y="4" width="56" height="56" rx="12" fill="#0b0e14" stroke="#f5d547" stroke-width="3"/><path fill="#f5d547" d="M28 16h8v22c0 5.5-3.4 10-10 10-3.7 0-6.7-1.6-8.7-4.5l6-3.6c.7 1.1 1.6 1.7 2.7 1.7 1.7 0 2-1.2 2-2.8V16Zm12 12.2c0-6 3.7-12.2 11.1-12.2 2.6 0 4.5.6 6.3 1.7l-3.5 6c-.7-.5-1.4-.8-2.5-.8-2 0-3.4 1.7-3.4 4.5v12.2c0 6-3.6 10.8-10.7 10.8-3.6 0-6.8-1.1-9.5-3.7l4.6-5.2c1.6 1.4 3.2 2 4.9 2 2.4 0 2.7-1.6 2.7-3.4V28.2Z"/></svg>