<svg xmlns="http://www.w3.org/2000/svg" viewBox="0 0 64 64" fill="none"><rect x="6" y="6" width="52" height="52" rx="12" fill="#0b0e14" stroke="#6cc24a" stroke-width="3"/><path fill="#6cc24a" d="M32 12 16 20v24l16 8 16-8V20L32 12Zm10.8 24.9c0 4.5-3.2 6.9-7.8 6.9-3.8 0-6.1-1.3-7.4-3.6l3.9-2.3c.7 1.2 1.7 1.8 3.2 1.8 1.7 0 2.7-.7 2.7-2.1v-.1c0-1.3-1-2-3.6-2.8-3.6-1-5.9-2.1-5.9-6v-.1c0-3.5 2.8-5.8 7-5.8 3 0 5.2 1.1 6.6 3.3l-3.6 2.5c-.7-1-1.6-1.6-3-1.6-1.6 0-2.5.8-2.5 1.9v.1c0 1.4 1 2 3.9 2.9 3.6 1.1 5.6 2.4 5.6 5.9v.1Z"/></svg>