<svg xmlns="http://www.w3.org/2000/svg" viewBox="0 0 64 64" fill="none"><rect x="6" y="6" width="52" height="52" rx="12" fill="#0b0e14" stroke="#f4d35e" stroke-width="3"/><path fill="#f4d35e" d="M33 14h-7c-4.4 0-7.8 3.4-7.8 7.8V32c0 4.4 3.4 7.7 7.8 7.7h6c3 0 5 .8 5 3v1.5c0 1.6-.6 2.5-2.4 2.5h-2.7v4.6H35c4.4 0 7.8-3.4 7.8-7.8v-9.9c0-4.4-3.4-7.7-7.8-7.7h-6c-3 0-5-.8-5-3V21c0-1.6.6-2.5 2.4-2.5H31V14Zm-3.8 6.2a1.6 1.6 0 1 1-3.2 0 1.6 1.6 0 0 1 3.2 0Zm5.8 23.6a1.6 1.6 0 1 1 0-3.2 1.6 1.6 0 0 1 0 3.2Z"/></svg>